<svg width="34" height="25" viewBox="0 0 34 25" fill="none" xmlns="http://www.w3.org/2000/svg">
<path d="M9.56831 5.33597L8.12804 5.33303C4.84272 5.32517 1.99066 7.99449 1.96806 11.2277V16.9161C1.96806 17.6923 1.86982 18.4497 1.44638 19.0952L1.16442 19.5255C0.735086 20.1779 1.19684 21.0523 1.96806 21.0523H15.7519C16.5231 21.0523 16.9839 20.1779 16.5555 19.5255L16.2735 19.0952C15.8511 18.4497 15.7519 17.6913 15.7519 16.9152V11.2287C15.7126 7.99449 12.8536 5.34383 9.56831 5.33597V5.33597Z" stroke="#343434" stroke-width="2" stroke-linecap="round" stroke-linejoin="round"/>
<path d="M11.8068 21.0527C11.8068 21.8344 11.4963 22.5841 10.9436 23.1368C10.3908 23.6896 9.64115 24.0001 8.85947 24.0001C8.07778 24.0001 7.32811 23.6896 6.77537 23.1368C6.22263 22.5841 5.91211 21.8344 5.91211 21.0527" stroke="#343434" stroke-width="2" stroke-linecap="round" stroke-linejoin="round"/>
<rect x="11" width="23" height="15" rx="3" fill="#FF9730"/>
</svg>
