<svg width="12" height="12" viewBox="0 0 12 12" fill="current" xmlns="http://www.w3.org/2000/svg">
<path d="M6.10693 0.799805C3.20772 0.799805 0.856934 3.15059 0.856934 6.0498C0.856934 8.94902 3.20772 11.2998 6.10693 11.2998C9.00615 11.2998 11.3569 8.94902 11.3569 6.0498C11.3569 3.15059 9.00615 0.799805 6.10693 0.799805ZM8.17529 7.66348L7.84014 8.12051C7.83285 8.13046 7.82366 8.13887 7.81311 8.14526C7.80256 8.15165 7.79085 8.1559 7.77865 8.15775C7.76646 8.1596 7.75401 8.15902 7.74204 8.15605C7.73007 8.15308 7.7188 8.14777 7.70889 8.14043L5.77061 6.72715C5.75853 6.71848 5.74872 6.70703 5.74199 6.69378C5.73526 6.68052 5.73181 6.66584 5.73193 6.65098V3.4248C5.73193 3.37324 5.77412 3.33105 5.82568 3.33105H6.38936C6.44092 3.33105 6.48311 3.37324 6.48311 3.4248V6.3252L8.1542 7.5334C8.19639 7.5627 8.20576 7.62129 8.17529 7.66348Z" fill="current"/>
</svg>
