<svg width="44" height="23" viewBox="0 0 44 23" fill="none" xmlns="http://www.w3.org/2000/svg">
<path d="M23.5556 23H41.4444C42.8538 23 44 21.8538 44 20.4444V2.55556C44 1.14617 42.8538 0 41.4444 0H23.5556C22.1462 0 21 1.14617 21 2.55556V10.2235H29.9419V5.11111L37.6086 11.5L29.9419 17.8889V12.7791H21V20.4444C21 21.8538 22.1462 23 23.5556 23Z" fill="#343434"/>
<path d="M2.91992 11.8311C2.11589 11.5999 1.52995 11.3167 1.16211 10.9814C0.797526 10.6429 0.615234 10.2262 0.615234 9.73145C0.615234 9.17155 0.838216 8.70931 1.28418 8.34473C1.7334 7.97689 2.31608 7.79297 3.03223 7.79297C3.52051 7.79297 3.95508 7.88737 4.33594 8.07617C4.72005 8.26497 5.01628 8.52539 5.22461 8.85742C5.4362 9.18945 5.54199 9.55241 5.54199 9.94629H4.59961C4.59961 9.5166 4.46289 9.17969 4.18945 8.93555C3.91602 8.68815 3.53027 8.56445 3.03223 8.56445C2.56999 8.56445 2.20866 8.66699 1.94824 8.87207C1.69108 9.07389 1.5625 9.35547 1.5625 9.7168C1.5625 10.0065 1.68457 10.2523 1.92871 10.4541C2.17611 10.6527 2.5944 10.835 3.18359 11.001C3.77604 11.167 4.23828 11.3509 4.57031 11.5527C4.9056 11.7513 5.15299 11.984 5.3125 12.251C5.47526 12.5179 5.55664 12.832 5.55664 13.1934C5.55664 13.7695 5.33203 14.2318 4.88281 14.5801C4.43359 14.9251 3.83301 15.0977 3.08105 15.0977C2.59277 15.0977 2.13704 15.0049 1.71387 14.8193C1.29069 14.6305 0.963542 14.3734 0.732422 14.0479C0.504557 13.7223 0.390625 13.3529 0.390625 12.9395H1.33301C1.33301 13.3691 1.49089 13.7093 1.80664 13.96C2.12565 14.2074 2.55046 14.3311 3.08105 14.3311C3.57585 14.3311 3.95508 14.2301 4.21875 14.0283C4.48242 13.8265 4.61426 13.5514 4.61426 13.2031C4.61426 12.8548 4.49219 12.5863 4.24805 12.3975C4.00391 12.2054 3.5612 12.0166 2.91992 11.8311ZM9.88281 15C9.83073 14.8958 9.78841 14.7103 9.75586 14.4434C9.33594 14.8796 8.83464 15.0977 8.25195 15.0977C7.73112 15.0977 7.30306 14.9512 6.96777 14.6582C6.63574 14.362 6.46973 13.9876 6.46973 13.5352C6.46973 12.985 6.67806 12.5586 7.09473 12.2559C7.51465 11.9499 8.10384 11.7969 8.8623 11.7969H9.74121V11.3818C9.74121 11.0661 9.64681 10.8154 9.45801 10.6299C9.26921 10.4411 8.99089 10.3467 8.62305 10.3467C8.30078 10.3467 8.0306 10.4281 7.8125 10.5908C7.5944 10.7536 7.48535 10.9505 7.48535 11.1816H6.57715C6.57715 10.918 6.66992 10.6641 6.85547 10.4199C7.04427 10.1725 7.29818 9.97721 7.61719 9.83398C7.93945 9.69076 8.29264 9.61914 8.67676 9.61914C9.28548 9.61914 9.76237 9.77214 10.1074 10.0781C10.4525 10.3809 10.6315 10.7992 10.6445 11.333V13.7646C10.6445 14.2497 10.7064 14.6354 10.8301 14.9219V15H9.88281ZM8.38379 14.3115C8.66699 14.3115 8.93555 14.2383 9.18945 14.0918C9.44336 13.9453 9.62728 13.7549 9.74121 13.5205V12.4365H9.0332C7.92643 12.4365 7.37305 12.7604 7.37305 13.4082C7.37305 13.6914 7.46745 13.9128 7.65625 14.0723C7.84505 14.2318 8.08757 14.3115 8.38379 14.3115ZM13.042 15H12.1387V9.7168H13.042V15ZM12.0654 8.31543C12.0654 8.16895 12.1094 8.04525 12.1973 7.94434C12.2884 7.84342 12.4219 7.79297 12.5977 7.79297C12.7734 7.79297 12.9069 7.84342 12.998 7.94434C13.0892 8.04525 13.1348 8.16895 13.1348 8.31543C13.1348 8.46191 13.0892 8.58398 12.998 8.68164C12.9069 8.7793 12.7734 8.82812 12.5977 8.82812C12.4219 8.82812 12.2884 8.7793 12.1973 8.68164C12.1094 8.58398 12.0654 8.46191 12.0654 8.31543ZM17.0459 10.5273C16.9092 10.5046 16.7611 10.4932 16.6016 10.4932C16.0091 10.4932 15.6071 10.7454 15.3955 11.25V15H14.4922V9.7168H15.3711L15.3857 10.3271C15.682 9.85514 16.1019 9.61914 16.6455 9.61914C16.8213 9.61914 16.9548 9.64193 17.0459 9.6875V10.5273Z" fill="#343434"/>
</svg>
