<svg width="12" height="12" viewBox="0 0 12 12" fill="none" xmlns="http://www.w3.org/2000/svg">
<path d="M11.3145 7.86602L9.09937 6.28898C9.07673 6.27273 9.05003 6.26309 9.02223 6.26112C8.99444 6.25915 8.96664 6.26493 8.94193 6.27782C8.89105 6.30398 8.85985 6.3611 8.85973 6.41858L8.86081 7.1651H6.86809C6.78337 7.1651 6.70117 7.22474 6.70117 7.30958V8.68262C6.70117 8.76746 6.78337 8.8259 6.86809 8.8259H8.88097V9.5783C8.88097 9.63566 8.90305 9.68834 8.95405 9.71462C9.00505 9.7409 9.05641 9.73646 9.10309 9.7031L11.3149 8.11574C11.3551 8.08706 11.3722 8.04062 11.3722 7.99118V7.99094C11.3722 7.94114 11.3549 7.89482 11.3145 7.86602V7.86602Z" fill="current"/>
<path d="M7.68693 9.42593H6.90813C6.85307 9.42593 6.80027 9.4478 6.76133 9.48674C6.7224 9.52567 6.70053 9.57847 6.70053 9.63353H6.69969V9.99473H1.82265V4.33877H3.94941C4.00447 4.33877 4.05727 4.3169 4.0962 4.27797C4.13514 4.23903 4.15701 4.18623 4.15701 4.13117V2.00441H6.69957V6.36713H6.70089C6.70205 6.42131 6.72437 6.47289 6.76309 6.51081C6.8018 6.54874 6.85382 6.57 6.90801 6.57005H7.68681C7.79997 6.57005 7.89141 6.47957 7.89393 6.36713H7.89441V1.49969H7.89381V1.01717C7.89381 0.962111 7.87194 0.909308 7.83301 0.870375C7.79407 0.831442 7.74127 0.80957 7.68621 0.80957H3.74181L0.62793 3.92357V10.9819C0.62793 11.0966 0.72081 11.1895 0.83553 11.1895H7.68621C7.74127 11.1895 7.79407 11.1676 7.83301 11.1286C7.87194 11.0897 7.89381 11.0369 7.89381 10.9819V10.6881H7.89441V9.63329C7.89438 9.57828 7.8725 9.52554 7.8336 9.48666C7.79469 9.44777 7.74194 9.42593 7.68693 9.42593V9.42593Z" fill="current"/>
</svg>
