<svg width="10" height="11" viewBox="0 0 10 11" fill="current" xmlns="http://www.w3.org/2000/svg">
<path d="M3.9999 2.90019V0.200195H1.2999C1.06121 0.200195 0.832289 0.295016 0.663506 0.463799C0.494723 0.632582 0.399902 0.8615 0.399902 1.1002V8.90019C0.399902 9.13889 0.494723 9.36781 0.663506 9.53659C0.832289 9.70537 1.06121 9.80019 1.2999 9.80019H4.1541C3.73092 9.28883 3.47258 8.66128 3.4131 8.00019H3.0999C3.02034 8.00019 2.94403 7.96859 2.88777 7.91233C2.83151 7.85607 2.7999 7.77976 2.7999 7.70019C2.7999 7.62063 2.83151 7.54432 2.88777 7.48806C2.94403 7.4318 3.02034 7.40019 3.0999 7.40019H3.4131C3.43142 7.19719 3.46858 6.99632 3.5241 6.80019H3.0999C3.02034 6.80019 2.94403 6.76859 2.88777 6.71233C2.83151 6.65607 2.7999 6.57976 2.7999 6.50019C2.7999 6.42063 2.83151 6.34432 2.88777 6.28806C2.94403 6.2318 3.02034 6.20019 3.0999 6.20019H3.7599C3.8697 5.98539 4.0023 5.78439 4.1541 5.60019H3.0999C3.02034 5.60019 2.94403 5.56859 2.88777 5.51233C2.83151 5.45607 2.7999 5.37976 2.7999 5.30019C2.7999 5.22063 2.83151 5.14432 2.88777 5.08806C2.94403 5.0318 3.02034 5.00019 3.0999 5.00019H4.8021C5.3391 4.62219 5.9937 4.40019 6.6999 4.40019C7.0119 4.40019 7.3137 4.44339 7.5999 4.52439V3.80019H4.8999C4.66121 3.80019 4.43229 3.70537 4.26351 3.53659C4.09472 3.36781 3.9999 3.13889 3.9999 2.90019ZM1.5999 5.30019C1.5999 5.22063 1.63151 5.14432 1.68777 5.08806C1.74403 5.0318 1.82034 5.00019 1.8999 5.00019C1.97947 5.00019 2.05577 5.0318 2.11203 5.08806C2.1683 5.14432 2.1999 5.22063 2.1999 5.30019C2.1999 5.37976 2.1683 5.45607 2.11203 5.51233C2.05577 5.56859 1.97947 5.60019 1.8999 5.60019C1.82034 5.60019 1.74403 5.56859 1.68777 5.51233C1.63151 5.45607 1.5999 5.37976 1.5999 5.30019ZM1.5999 6.50019C1.5999 6.42063 1.63151 6.34432 1.68777 6.28806C1.74403 6.2318 1.82034 6.20019 1.8999 6.20019C1.97947 6.20019 2.05577 6.2318 2.11203 6.28806C2.1683 6.34432 2.1999 6.42063 2.1999 6.50019C2.1999 6.57976 2.1683 6.65607 2.11203 6.71233C2.05577 6.76859 1.97947 6.80019 1.8999 6.80019C1.82034 6.80019 1.74403 6.76859 1.68777 6.71233C1.63151 6.65607 1.5999 6.57976 1.5999 6.50019ZM1.8999 7.40019C1.97947 7.40019 2.05577 7.4318 2.11203 7.48806C2.1683 7.54432 2.1999 7.62063 2.1999 7.70019C2.1999 7.77976 2.1683 7.85607 2.11203 7.91233C2.05577 7.96859 1.97947 8.00019 1.8999 8.00019C1.82034 8.00019 1.74403 7.96859 1.68777 7.91233C1.63151 7.85607 1.5999 7.77976 1.5999 7.70019C1.5999 7.62063 1.63151 7.54432 1.68777 7.48806C1.74403 7.4318 1.82034 7.40019 1.8999 7.40019ZM4.5999 2.90019V0.350195L7.4499 3.20019H4.8999C4.82034 3.20019 4.74403 3.16859 4.68777 3.11233C4.63151 3.05607 4.5999 2.97976 4.5999 2.90019ZM9.3999 7.70019C9.3999 8.41628 9.11544 9.10303 8.60909 9.60938C8.10274 10.1157 7.41599 10.4002 6.6999 10.4002C5.98382 10.4002 5.29706 10.1157 4.79071 9.60938C4.28437 9.10303 3.9999 8.41628 3.9999 7.70019C3.9999 6.98411 4.28437 6.29735 4.79071 5.79101C5.29706 5.28466 5.98382 5.00019 6.6999 5.00019C7.41599 5.00019 8.10274 5.28466 8.60909 5.79101C9.11544 6.29735 9.3999 6.98411 9.3999 7.70019ZM6.9999 5.90019C6.9999 5.82063 6.9683 5.74432 6.91203 5.68806C6.85577 5.6318 6.77947 5.60019 6.6999 5.60019C6.62034 5.60019 6.54403 5.6318 6.48777 5.68806C6.43151 5.74432 6.3999 5.82063 6.3999 5.90019V7.70019C6.3999 7.77976 6.43151 7.85607 6.48777 7.91233C6.54403 7.96859 6.62034 8.00019 6.6999 8.00019H7.8999C7.97947 8.00019 8.05577 7.96859 8.11203 7.91233C8.16829 7.85607 8.1999 7.77976 8.1999 7.70019C8.1999 7.62063 8.16829 7.54432 8.11203 7.48806C8.05577 7.4318 7.97947 7.40019 7.8999 7.40019H6.9999V5.90019Z" fill="current"/>
</svg>
