<svg width="12" height="11" viewBox="0 0 12 11" fill="none" xmlns="http://www.w3.org/2000/svg">
<path d="M1.76469 2.25H5.08724C4.99195 2.60775 4.94113 2.985 4.94113 3.375C4.94113 4.8045 5.62582 6.06375 6.66487 6.804L5.647 7.44L0.0105882 3.91725C0.0586994 3.45873 0.264226 3.03515 0.587849 2.72755C0.911472 2.41995 1.33047 2.24993 1.76469 2.25ZM8.82344 7.5C9.76225 7.5 10.6234 7.146 11.294 6.55725V9.125C11.294 9.62228 11.1081 10.0992 10.7771 10.4508C10.4462 10.8025 9.99734 11 9.52931 11H1.76469C1.29666 11 0.847808 10.8025 0.516865 10.4508C0.185922 10.0992 0 9.62228 0 9.125V4.77975L5.46841 8.19825C5.52265 8.23215 5.58443 8.25002 5.64735 8.25002C5.71028 8.25002 5.77206 8.23215 5.82629 8.19825L7.40039 7.21425C7.85361 7.40375 8.3364 7.5007 8.82344 7.5Z" fill="current"/>
<path d="M8.82341 0C9.24055 -6.60436e-09 9.6536 0.0872969 10.039 0.256907C10.4244 0.426516 10.7745 0.675117 11.0695 0.988514C11.3645 1.30191 11.5984 1.67397 11.7581 2.08344C11.9177 2.49292 11.9998 2.93179 11.9998 3.375C11.9998 3.81821 11.9177 4.25708 11.7581 4.66656C11.5984 5.07603 11.3645 5.44809 11.0695 5.76149C10.7745 6.07488 10.4244 6.32348 10.039 6.49309C9.6536 6.6627 9.24055 6.75 8.82341 6.75C7.98097 6.75 7.17303 6.39442 6.57733 5.76149C5.98163 5.12855 5.64697 4.27011 5.64697 3.375C5.64697 2.47989 5.98163 1.62145 6.57733 0.988515C7.17303 0.355579 7.98097 1.33381e-08 8.82341 0ZM9.97848 3.375H8.82341V1.84091C8.82341 1.75954 8.79299 1.6815 8.73883 1.62396C8.68468 1.56642 8.61123 1.53409 8.53464 1.53409C8.45806 1.53409 8.38461 1.56642 8.33045 1.62396C8.2763 1.6815 8.24588 1.75954 8.24588 1.84091V3.68182C8.24588 3.76319 8.2763 3.84123 8.33045 3.89877C8.38461 3.95631 8.45806 3.98864 8.53464 3.98864H9.97848C10.0551 3.98864 10.1285 3.95631 10.1827 3.89877C10.2368 3.84123 10.2672 3.76319 10.2672 3.68182C10.2672 3.60045 10.2368 3.5224 10.1827 3.46486C10.1285 3.40733 10.0551 3.375 9.97848 3.375Z" fill="current"/>
</svg>
