<svg width="15" height="15" viewBox="0 0 15 15" fill="none" xmlns="http://www.w3.org/2000/svg">
<path d="M11.0623 0C11.7088 0 12.3288 0.256806 12.7859 0.713924C13.243 1.17104 13.4998 1.79103 13.4998 2.43749V2.99999H0V2.43749C0 1.79103 0.256803 1.17104 0.713915 0.713924C1.17103 0.256806 1.79101 0 2.43746 0H11.0623Z" fill="current"/>
<path d="M13.4998 4.125V6.76649C12.5638 6.16785 11.4514 5.90691 10.3468 6.02689C9.24221 6.14687 8.21177 6.64058 7.42612 7.42623C6.64048 8.21188 6.14678 9.24234 6.0268 10.3469C5.90682 11.4515 6.16776 12.5639 6.76639 13.5H2.43746C1.79101 13.5 1.17103 13.2432 0.713915 12.786C0.256803 12.3289 0 11.7089 0 11.0625V4.125H13.4998Z" fill="current"/>
<path d="M14.9999 10.875C14.9999 9.78097 14.5653 8.73176 13.7917 7.95818C13.0181 7.18459 11.9689 6.75 10.8749 6.75C9.78093 6.75 8.73174 7.18459 7.95816 7.95818C7.18459 8.73176 6.75 9.78097 6.75 10.875C6.75 11.969 7.18459 13.0182 7.95816 13.7918C8.73174 14.5654 9.78093 15 10.8749 15C11.9689 15 13.0181 14.5654 13.7917 13.7918C14.5653 13.0182 14.9999 11.969 14.9999 10.875ZM10.8749 10.875H12.3749C12.4744 10.875 12.5697 10.9145 12.6401 10.9848C12.7104 11.0551 12.7499 11.1505 12.7499 11.25C12.7499 11.3494 12.7104 11.4448 12.6401 11.5151C12.5697 11.5855 12.4744 11.625 12.3749 11.625H10.4999C10.4005 11.625 10.3051 11.5855 10.2348 11.5151C10.1645 11.4448 10.1249 11.3494 10.1249 11.25V8.99999C10.1249 8.90053 10.1645 8.80515 10.2348 8.73483C10.3051 8.6645 10.4005 8.62499 10.4999 8.62499C10.5994 8.62499 10.6948 8.6645 10.7651 8.73483C10.8354 8.80515 10.8749 8.90053 10.8749 8.99999V10.875Z" fill="current"/>
</svg>
