<svg width="28" height="29" viewBox="0 0 28 29" fill="none" xmlns="http://www.w3.org/2000/svg">
<rect width="28" height="29" rx="9" fill="#F5F5F5"/>
<path d="M8.5 9.6002C8.5 8.43324 8.96357 7.31409 9.78873 6.48893C10.6139 5.66377 11.733 5.2002 12.9 5.2002C14.067 5.2002 15.1861 5.66377 16.0113 6.48893C16.8364 7.31409 17.3 8.43324 17.3 9.6002C17.3 10.7671 16.8364 11.8863 16.0113 12.7115C15.1861 13.5366 14.067 14.0002 12.9 14.0002C11.733 14.0002 10.6139 13.5366 9.78873 12.7115C8.96357 11.8863 8.5 10.7671 8.5 9.6002Z" fill="black"/>
<path d="M5.2002 17.3006C5.2002 16.0763 6.1935 15.1006 7.4101 15.1006H14.2829C13.3871 16.1834 12.898 17.5453 12.9002 18.9506C12.9002 20.3839 13.3985 21.7006 14.2312 22.7379C13.7967 22.7797 13.3512 22.8006 12.9002 22.8006C10.8597 22.8006 8.9589 22.376 7.5487 21.4773C6.1165 20.5643 5.2002 19.1596 5.2002 17.3006Z" fill="black"/>
<path d="M23.9 18.95C23.9 20.2628 23.3785 21.5219 22.4502 22.4502C21.5219 23.3785 20.2628 23.9 18.95 23.9C17.6372 23.9 16.3781 23.3785 15.4498 22.4502C14.5215 21.5219 14 20.2628 14 18.95C14 17.6372 14.5215 16.3781 15.4498 15.4498C16.3781 14.5215 17.6372 14 18.95 14C20.2628 14 21.5219 14.5215 22.4502 15.4498C23.3785 16.3781 23.9 17.6372 23.9 18.95ZM18.95 16.2C18.8041 16.2 18.6642 16.2579 18.5611 16.3611C18.4579 16.4642 18.4 16.6041 18.4 16.75V18.95C18.4 19.0959 18.4579 19.2358 18.5611 19.3389C18.6642 19.4421 18.8041 19.5 18.95 19.5H20.6C20.7459 19.5 20.8858 19.4421 20.9889 19.3389C21.0921 19.2358 21.15 19.0959 21.15 18.95C21.15 18.8041 21.0921 18.6642 20.9889 18.5611C20.8858 18.4579 20.7459 18.4 20.6 18.4H19.5V16.75C19.5 16.6041 19.4421 16.4642 19.3389 16.3611C19.2358 16.2579 19.0959 16.2 18.95 16.2Z" fill="black"/>
</svg>
